<?xml version="1.0" encoding="UTF-8"?>
<svg version="1.1" xmlns="http://www.w3.org/2000/svg" width="626" height="499">
<path d="M0 0 C206.58 0 413.16 0 626 0 C626 164.67 626 329.34 626 499 C419.42 499 212.84 499 0 499 C0 334.33 0 169.66 0 0 Z " fill="#FEFEFE" transform="translate(0,0)"/>
<path d="M0 0 C5.89413826 0.57856572 11.55942025 1.42651316 17.328125 2.75 C18.10283646 2.92392273 18.87754791 3.09784546 19.67573547 3.27703857 C22.20171719 3.84608229 24.7258866 4.42273013 27.25 5 C29.02724187 5.40275972 30.80450458 5.80542754 32.58178711 6.20800781 C46.14854891 9.2938653 59.66873923 12.55933231 73.17797852 15.88671875 C82.92962716 18.28391797 92.69959624 20.54351186 102.53149414 22.59277344 C103.79014282 22.85622559 103.79014282 22.85622559 105.07421875 23.125 C105.79182373 23.27195313 106.50942871 23.41890625 107.2487793 23.5703125 C109 24 109 24 111 25 C110.67 27.97 110.34 30.94 110 34 C115.7945502 32.11690641 121.58880515 30.23290775 127.3828125 28.34814453 C129.3453008 27.70988749 131.30786336 27.07185874 133.27050781 26.43408203 C136.12585726 25.50616652 138.98095405 24.57747845 141.8359375 23.6484375 C143.24162994 23.19135406 143.24162994 23.19135406 144.67572021 22.72503662 C149.24405936 21.23645665 153.80705351 19.73421885 158.36035156 18.20019531 C159.19394196 17.91963287 160.02753235 17.63907043 160.88638306 17.3500061 C162.45029035 16.82216182 164.01331021 16.29167847 165.57528687 15.75814819 C170.7812292 14 170.7812292 14 173 14 C173.30067383 14.92707764 173.60134766 15.85415527 173.91113281 16.80932617 C174.11309265 17.43202896 174.31505249 18.05473175 174.52313232 18.69630432 C174.98607948 20.12373856 175.44901015 21.55117814 175.91192627 22.97862244 C177.23192144 27.04885944 178.55222461 31.11899616 179.87304688 35.18896484 C182.42324494 43.04814004 184.97178133 50.9078266 187.50921631 58.77113342 C188.58111517 62.09250596 189.6544629 65.4134095 190.72790527 68.73428345 C191.23717202 70.31117861 191.7457327 71.88830199 192.25354004 73.46566772 C192.96926911 75.68864953 193.68702148 77.9109606 194.40625 80.1328125 C194.62923767 80.82246597 194.85222534 81.51211945 195.08197021 82.22267151 C196.68478293 87.13794645 198.43523929 91.981977 200.31835938 96.79638672 C201 99 201 99 201 103 C193.97558005 105.3499962 186.95034324 107.69753818 179.92456055 110.04345703 C177.53961064 110.84010607 175.15484128 111.63729585 172.77026367 112.43505859 C169.32258855 113.5883734 165.87424676 114.73967595 162.42578125 115.890625 C160.8530822 116.41743866 160.8530822 116.41743866 159.24861145 116.95489502 C152.8132856 119.10016247 146.3538828 121.146586 139.8646698 123.12298584 C127.58428727 126.09501567 127.58428727 126.09501567 117 132 C115.33382885 132.04063832 113.66611905 132.042721 112 132 C111.731875 131.05125 111.46375 130.1025 111.1875 129.125 C108.28077661 118.98759619 105.04486392 108.99065899 101.59179688 99.02539062 C101.25599609 98.04119141 100.92019531 97.05699219 100.57421875 96.04296875 C100.11921997 94.72848755 100.11921997 94.72848755 99.6550293 93.38745117 C99 91 99 91 99 87 C98.34 87 97.68 87 97 87 C96.85413452 87.86806274 96.85413452 87.86806274 96.70532227 88.75366211 C95.22058994 97.25975702 93.36582901 105.67534822 91.48608398 114.10083008 C90.93183277 116.58793067 90.3827452 119.07613603 89.83398438 121.56445312 C89.48207817 123.14850581 89.12987571 124.73249271 88.77734375 126.31640625 C88.53201149 127.43034508 88.53201149 127.43034508 88.28172302 128.56678772 C87.11477731 133.77044538 87.11477731 133.77044538 86 136 C73.82140564 134.78214056 61.89240259 131.54717516 50 128.75 C48.05578714 128.29443675 46.11157367 127.83887606 44.16732788 127.38345337 C42.15215656 126.91127278 40.13711312 126.43854901 38.12207031 125.96582031 C33.9233745 124.98137963 29.72353318 124.00188612 25.5234375 123.0234375 C24.8362262 122.86331177 24.14901489 122.70318604 23.440979 122.53820801 C20.12606184 121.76584029 16.81109693 120.99367816 13.49609375 120.22167969 C11.71525391 119.80644043 11.71525391 119.80644043 9.8984375 119.3828125 C8.33101807 119.01760498 8.33101807 119.01760498 6.73193359 118.64501953 C5.16730297 118.27560451 3.60713555 117.88070033 2.06884766 117.41357422 C-5.83656748 115.83323751 -12.2163283 118.4552465 -19.65234375 121.05078125 C-20.86644424 121.46539108 -22.08054474 121.88000092 -23.33143616 122.30717468 C-26.54888904 123.40622346 -29.76172991 124.51819274 -32.97381592 125.6328125 C-36.22381423 126.75773032 -39.47839995 127.86921006 -42.73242188 128.98242188 C-56.92166504 133.83655909 -56.92166504 133.83655909 -71 139 C-74.43001505 140.25058131 -77.87037676 141.47069038 -81.3125 142.6875 C-82.20517578 143.00783203 -83.09785156 143.32816406 -84.01757812 143.65820312 C-84.87416016 143.96048828 -85.73074219 144.26277344 -86.61328125 144.57421875 C-87.38454346 144.84838623 -88.15580566 145.12255371 -88.95043945 145.4050293 C-91 146 -91 146 -94 146 C-94.34256836 144.99735107 -94.68513672 143.99470215 -95.03808594 142.96166992 C-96.32672048 139.19095536 -97.61677441 135.42072763 -98.90722656 131.65063477 C-99.4622928 130.02836847 -100.0169897 128.40597575 -100.57128906 126.78344727 C-103.63206577 117.82487427 -106.70778318 108.87696465 -110 100 C-110.33 100 -110.66 100 -111 100 C-111.15033691 100.58676514 -111.30067383 101.17353027 -111.45556641 101.77807617 C-115.08759269 115.91772194 -118.92071648 129.98288749 -123 144 C-130.99330357 143.33303629 -138.59608678 141.14240565 -146.3125 139.0625 C-147.81703396 138.66088265 -149.32159172 138.25935444 -150.82617188 137.85791016 C-163.05375396 134.58117148 -175.22588998 131.11717612 -187.38891602 127.60961914 C-198.51302869 124.40424958 -209.67079616 121.34882606 -220.859375 118.375 C-224.92044374 117.29558739 -228.96479074 116.17223956 -233 115 C-233 114.34 -233 113.68 -233 113 C-232.34588135 112.64663574 -231.6917627 112.29327148 -231.01782227 111.92919922 C-225.97156829 109.19144708 -220.94987179 106.41820529 -215.96484375 103.5703125 C-214.47500977 102.71953125 -214.47500977 102.71953125 -212.95507812 101.8515625 C-210.90676955 100.6795853 -208.85994197 99.50501665 -206.81445312 98.328125 C-205.83283203 97.76867187 -204.85121094 97.20921875 -203.83984375 96.6328125 C-202.51521118 95.87315186 -202.51521118 95.87315186 -201.16381836 95.09814453 C-199 94 -199 94 -197 94 C-197 99.94 -197 105.88 -197 112 C-191.19996802 111.97179472 -185.40397053 111.92841966 -179.60498047 111.84741211 C-177.63631347 111.82434809 -175.66752511 111.80986387 -173.69873047 111.80444336 C-158.4246305 112.275934 -158.4246305 112.275934 -145 106 C-140.34286221 100.4988831 -140.47219468 94.9311793 -141 88 C-142.78968312 82.42039969 -146.49736371 79.47874914 -151 76 C-150.2575 75.175 -149.515 74.35 -148.75 73.5 C-146.69793267 71.10498443 -145.61823376 69.0763883 -144.5625 66.125 C-141.65582313 59.71794205 -133.97082138 57.00137545 -128 54 C-128.14322103 52.45808846 -128.28971789 50.91648108 -128.4375 49.375 C-128.55931641 48.08722656 -128.55931641 48.08722656 -128.68359375 46.7734375 C-129.01972685 43.82708564 -129.49034288 40.92089208 -130 38 C-111.0028634 30.75667836 -91.7669372 24.20801417 -72.52880859 17.63891602 C-65.20113164 15.13548743 -57.88082005 12.61454154 -50.578125 10.0390625 C-48.61285512 9.34922113 -46.64738628 8.65994974 -44.68185425 7.97085571 C-42.864748 7.33090088 -41.05060905 6.68254008 -39.23657227 6.03393555 C-33.43917756 4.0032169 -28.13698903 2.44210299 -22 2 C-18.12544006 12.3731014 -14.33921595 22.74773323 -10.9453125 33.2890625 C-10.26074665 35.88420558 -10.26074665 35.88420558 -9 37 C-8.79842285 36.16339844 -8.5968457 35.32679688 -8.38916016 34.46484375 C-7.63275681 31.32626951 -6.87604826 28.18776906 -6.11914062 25.04931641 C-5.79317413 23.69745735 -5.4673252 22.34556994 -5.14160156 20.99365234 C-3.45387465 13.98906793 -1.76425761 6.98574732 0 0 Z " fill="#CF5756" transform="translate(330,194)"/>
<path d="M0 0 C2.04751136 5.48166586 4.07481043 10.97005998 6.07617188 16.46875 C6.65369269 18.05113263 7.23508789 19.63211282 7.82226562 21.2109375 C8.54332347 23.1561168 9.24322087 25.10763083 9.9375 27.0625 C10.33839844 28.16722656 10.73929688 29.27195313 11.15234375 30.41015625 C13.35497862 39.73836568 11.32948496 47.90655376 8.875 57 C8.2295938 59.47729843 7.5864177 61.95517878 6.9453125 64.43359375 C6.45659668 66.31280518 6.45659668 66.31280518 5.95800781 68.22998047 C4.18873134 75.19256134 2.61839454 82.20057149 1.04248047 89.20898438 C-0.46531658 95.86096677 -2.16462254 102.43042834 -4 109 C2.93 110.32 9.86 111.64 17 113 C14.63974164 115.36025836 12.91513615 115.86524458 9.75927734 116.92358398 C8.66408783 117.29414413 7.56889832 117.66470428 6.44052124 118.04649353 C5.25100861 118.4423616 4.06149597 118.83822968 2.8359375 119.24609375 C0.96972791 119.87537909 -0.89648132 120.50466546 -2.76267052 121.13401127 C-5.38406842 122.01634582 -8.00729643 122.89317235 -10.63049316 123.7701416 C-15.19598972 125.29774853 -19.75847257 126.83433443 -24.32113647 128.37037659 C-26.74902674 129.18712335 -29.17756811 130.00193789 -31.60684204 130.81455994 C-37.44886879 132.77419773 -43.24451263 134.799455 -49 137 C-52.43001505 138.25058131 -55.87037676 139.47069038 -59.3125 140.6875 C-60.20517578 141.00783203 -61.09785156 141.32816406 -62.01757812 141.65820312 C-62.87416016 141.96048828 -63.73074219 142.26277344 -64.61328125 142.57421875 C-65.38454346 142.84838623 -66.15580566 143.12255371 -66.95043945 143.4050293 C-69 144 -69 144 -72 144 C-72.34256836 142.99735107 -72.68513672 141.99470215 -73.03808594 140.96166992 C-74.32672048 137.19095536 -75.61677441 133.42072763 -76.90722656 129.65063477 C-77.4622928 128.02836847 -78.0169897 126.40597575 -78.57128906 124.78344727 C-81.63206577 115.82487427 -84.70778318 106.87696465 -88 98 C-88.33 98 -88.66 98 -89 98 C-89.15033691 98.58676514 -89.30067383 99.17353027 -89.45556641 99.77807617 C-93.08759269 113.91772194 -96.92071648 127.98288749 -101 142 C-108.99330357 141.33303629 -116.59608678 139.14240565 -124.3125 137.0625 C-125.81703396 136.66088265 -127.32159172 136.25935444 -128.82617188 135.85791016 C-141.05375396 132.58117148 -153.22588998 129.11717612 -165.38891602 125.60961914 C-176.51302869 122.40424958 -187.67079616 119.34882606 -198.859375 116.375 C-202.92044374 115.29558739 -206.96479074 114.17223956 -211 113 C-211 112.34 -211 111.68 -211 111 C-210.34588135 110.64663574 -209.6917627 110.29327148 -209.01782227 109.92919922 C-203.97156829 107.19144708 -198.94987179 104.41820529 -193.96484375 101.5703125 C-192.47500977 100.71953125 -192.47500977 100.71953125 -190.95507812 99.8515625 C-188.90676955 98.6795853 -186.85994197 97.50501665 -184.81445312 96.328125 C-183.83283203 95.76867187 -182.85121094 95.20921875 -181.83984375 94.6328125 C-180.51521118 93.87315186 -180.51521118 93.87315186 -179.16381836 93.09814453 C-177 92 -177 92 -175 92 C-175 97.94 -175 103.88 -175 110 C-169.19996802 109.97179472 -163.40397053 109.92841966 -157.60498047 109.84741211 C-155.63631347 109.82434809 -153.66752511 109.80986387 -151.69873047 109.80444336 C-136.4246305 110.275934 -136.4246305 110.275934 -123 104 C-118.34286221 98.4988831 -118.47219468 92.9311793 -119 86 C-120.78968312 80.42039969 -124.49736371 77.47874914 -129 74 C-128.2575 73.175 -127.515 72.35 -126.75 71.5 C-124.69793267 69.10498443 -123.61823376 67.0763883 -122.5625 64.125 C-119.65582313 57.71794205 -111.97082138 55.00137545 -106 52 C-106.14322103 50.45808846 -106.28971789 48.91648108 -106.4375 47.375 C-106.55931641 46.08722656 -106.55931641 46.08722656 -106.68359375 44.7734375 C-107.01972685 41.82708564 -107.49034288 38.92089208 -108 36 C-89.00557326 28.75771159 -69.7697134 22.22247949 -50.53979492 15.63891602 C-39.28679403 11.78628968 -28.04000289 7.91598092 -16.79711914 4.03393555 C-15.67813232 3.64761963 -14.55914551 3.26130371 -13.40625 2.86328125 C-11.94155273 2.35728394 -11.94155273 2.35728394 -10.44726562 1.84106445 C-6.7342218 0.56498345 -3.93016408 -0.10622065 0 0 Z " fill="#B00246" transform="translate(308,196)"/>
<path d="M0 0 C3.38034453 0.64189963 6.67555445 1.42368275 9.98828125 2.3515625 C14.12150732 3.49333766 18.26249834 4.5904095 22.41796875 5.6484375 C33.53514269 8.48120631 44.58766598 11.35814019 55.5078125 14.87890625 C64.52988842 17.77525501 73.62240755 20.20642282 82.8671875 22.2734375 C87.61701464 23.37501836 92.30851405 24.67434966 97 26 C94.45079818 27.69946788 92.67900436 28.56531331 89.83984375 29.5078125 C89.04642578 29.77207031 88.25300781 30.03632813 87.43554688 30.30859375 C86.61119141 30.57800781 85.78683594 30.84742188 84.9375 31.125 C84.10927734 31.40214844 83.28105469 31.67929688 82.42773438 31.96484375 C76.26712592 34 76.26712592 34 74 34 C74.309375 34.78375 74.61875 35.5675 74.9375 36.375 C76.26335807 40.89851578 76.64811085 45.31431814 77 50 C75.97519531 50.53367188 74.95039063 51.06734375 73.89453125 51.6171875 C63.69469011 57.09771549 63.69469011 57.09771549 57.859375 66.8359375 C56.93156162 69.17234028 55.87885629 70.36391728 54 72 C54.55429688 72.44730469 55.10859375 72.89460938 55.6796875 73.35546875 C56.76636719 74.26232422 56.76636719 74.26232422 57.875 75.1875 C58.59429687 75.77917969 59.31359375 76.37085938 60.0546875 76.98046875 C63.62542722 80.68744151 64.29109528 84.40739056 64.3125 89.4375 C64.18558873 95.33887384 63.05855567 98.99862643 58.75 103.1875 C52.07723473 107.58545893 46.97218228 108.43057165 39.12890625 108.29296875 C38.206577 108.28872391 37.28424774 108.28447906 36.33396912 108.28010559 C33.40983965 108.26341364 30.48641851 108.22577938 27.5625 108.1875 C25.57097355 108.17244089 23.57943621 108.15875464 21.58789062 108.14648438 C16.72477296 108.11610255 11.8631723 108.05736376 7 108 C7 102.06 7 96.12 7 90 C5.61167969 90.79664063 4.22335938 91.59328125 2.79296875 92.4140625 C-13.93902949 102.00477801 -13.93902949 102.00477801 -20.5625 105.6875 C-21.34753906 106.12449219 -22.13257812 106.56148438 -22.94140625 107.01171875 C-24.95574766 107.97875552 -26.81698833 108.54953727 -29 109 C-28.41719777 103.46183291 -27.42464824 98.32300432 -25.890625 92.9765625 C-25.68193787 92.23151459 -25.47325073 91.48646667 -25.25823975 90.71884155 C-24.5942011 88.3526754 -23.9223287 85.98882233 -23.25 83.625 C-22.81456924 82.0795777 -22.37966986 80.53400558 -21.9453125 78.98828125 C-21.07353724 75.88822981 -20.19908626 72.78895168 -19.32275391 69.69018555 C-16.19662886 58.62267345 -13.13206523 47.5379304 -10.125 36.4375 C-6.81926431 24.27230434 -3.41370956 12.13526547 0 0 Z " fill="#C6839F" transform="translate(126,198)"/>
<path d="M0 0 C4.61760243 3.51394471 8.77187935 7.15781902 12 12 C15.09738905 10.87367671 17.82634522 9.5297213 20.625 7.8125 C21.73875 7.214375 22.8525 6.61625 24 6 C24.99 6.33 25.98 6.66 27 7 C27 8.65 27 10.3 27 12 C27.66 12 28.32 12 29 12 C29 13.98 29 15.96 29 18 C29.66 18 30.32 18 31 18 C31 19.32 31 20.64 31 22 C31.66 22 32.32 22 33 22 C33 23.32 33 24.64 33 26 C33.66 26 34.32 26 35 26 C35 27.98 35 29.96 35 32 C35.66 32 36.32 32 37 32 C37 34.64 37 37.28 37 40 C37.66 40 38.32 40 39 40 C39 41.98 39 43.96 39 46 C39.66 46 40.32 46 41 46 C39.71018017 52.57267047 38.33806121 59.1209287 36.87109375 65.65625 C36.5792495 66.95967346 36.5792495 66.95967346 36.2815094 68.28942871 C35.87457822 70.10455126 35.46701545 71.91953233 35.05883789 73.734375 C34.43295634 76.52022419 33.8111543 79.30696532 33.18945312 82.09375 C32.79191496 83.86463909 32.39413728 85.63547443 31.99609375 87.40625 C31.81066513 88.23950806 31.62523651 89.07276611 31.43418884 89.93127441 C30.11437924 95.77124152 30.11437924 95.77124152 29 98 C16.82129917 96.78212992 4.89260654 93.54670703 -7 90.75 C-8.30188165 90.44522757 -9.60380322 90.1406256 -10.90576172 89.83618164 C-17.48308814 88.2974631 -24.05847617 86.75066702 -30.6328125 85.19921875 C-33.13011235 84.61157111 -35.62750747 84.02432822 -38.125 83.4375 C-39.34533936 83.15011963 -40.56567871 82.86273926 -41.82299805 82.56665039 C-48.22611605 81.07085564 -54.6369337 79.63653436 -61.07421875 78.296875 C-61.72865967 78.16003799 -62.38310059 78.02320099 -63.05737305 77.88221741 C-66.19692915 77.22698969 -69.33806742 76.58230961 -72.48291016 75.95288086 C-73.58812012 75.72479736 -74.69333008 75.49671387 -75.83203125 75.26171875 C-76.80889893 75.06537842 -77.7857666 74.86903809 -78.79223633 74.66674805 C-79.52079834 74.44672119 -80.24936035 74.22669434 -81 74 C-81.33 73.34 -81.66 72.68 -82 72 C-69.27354025 62.97149146 -69.27354025 62.97149146 -62.41015625 59.328125 C-57.15197124 56.43058383 -52.09482941 53.17344088 -47 50 C-47.31049726 48.56206608 -47.6234776 47.1246682 -47.9375 45.6875 C-48.11152344 44.88699219 -48.28554688 44.08648437 -48.46484375 43.26171875 C-48.99886159 40.854599 -48.99886159 40.854599 -50 38 C-51.1152778 26.15245877 -48.04623742 16.73291576 -40.984375 7.2265625 C-30.33051095 -4.7275763 -14.06647298 -7.63954998 0 0 Z " fill="#A3A3A3" transform="translate(387,232)"/>
<path d="M0 0 C5.89413826 0.57856572 11.55942025 1.42651316 17.328125 2.75 C18.10283646 2.92392273 18.87754791 3.09784546 19.67573547 3.27703857 C22.20171719 3.84608229 24.7258866 4.42273013 27.25 5 C29.02724187 5.40275972 30.80450458 5.80542754 32.58178711 6.20800781 C46.14854891 9.2938653 59.66873923 12.55933231 73.17797852 15.88671875 C82.92962716 18.28391797 92.69959624 20.54351186 102.53149414 22.59277344 C103.37059326 22.7684082 104.20969238 22.94404297 105.07421875 23.125 C105.79182373 23.27195313 106.50942871 23.41890625 107.2487793 23.5703125 C109 24 109 24 111 25 C110.67 27.97 110.34 30.94 110 34 C109.34 34 108.68 34 108 34 C108 34.66 108 35.32 108 36 C106.68 36 105.36 36 104 36 C104 36.66 104 37.32 104 38 C103.33613281 38.12117188 102.67226563 38.24234375 101.98828125 38.3671875 C96.48955189 39.39329898 96.48955189 39.39329898 91.1875 41.125 C88.66297771 42.13480892 86.69435805 42.15396332 84 42 C83.67 42.99 83.34 43.98 83 45 C81.00945124 45.69437747 79.00744615 46.35610218 77 47 C74.9659094 48.28072371 72.95597184 49.60287726 71 51 C67.8994391 49.65598004 66.18341417 48.28814601 64.125 45.625 C58.64448809 39.03745201 51.77391494 35.70063588 43.328125 34.67578125 C34.11533164 34.29842107 26.08602574 37.29615494 18.88671875 43.03515625 C10.82754069 51.42804769 7.58395648 61.61222706 7.7265625 72.9921875 C8.05907464 76.64982101 9.0074396 79.69745826 10.44140625 83.0625 C11.1660427 85.57592432 11.12929321 86.62426697 10 89 C7.5859375 90.82421875 7.5859375 90.82421875 4.375 92.6875 C3.80249512 93.02563721 3.22999023 93.36377441 2.64013672 93.7121582 C1.40956607 94.4381982 0.17587719 95.15897366 -1.06054688 95.875 C-3.69814794 97.40496799 -6.31786889 98.96398923 -8.93505859 100.52856445 C-10.19069841 101.2786931 -11.44869736 102.02489268 -12.70947266 102.76635742 C-16.97724179 105.29884765 -20.99170507 108.0732271 -25 111 C-26.190181 107.429457 -25.72173943 106.09450142 -24.77734375 102.49609375 C-24.48891602 101.37557617 -24.20048828 100.25505859 -23.90332031 99.10058594 C-23.58459961 97.89176758 -23.26587891 96.68294922 -22.9375 95.4375 C-22.2832816 92.88980357 -21.63098132 90.34161392 -20.98046875 87.79296875 C-20.73098984 86.81954025 -20.73098984 86.81954025 -20.47647095 85.82644653 C-18.81385793 79.32093401 -17.2605778 72.79228437 -15.75 66.25 C-15.50137207 65.17363281 -15.25274414 64.09726562 -14.99658203 62.98828125 C-13.36870188 55.8446171 -11.93352428 48.69321824 -10.73828125 41.46484375 C-10.17102209 38.80262749 -9.51054655 36.48433952 -8.61328125 33.9375 C-6.48634965 27.77743068 -5.23186766 21.42750484 -3.875 15.0625 C-3.35390164 12.63621519 -2.830581 10.21040624 -2.3046875 7.78515625 C-2.07765137 6.72176025 -1.85061523 5.65836426 -1.61669922 4.56274414 C-1 2 -1 2 0 0 Z " fill="#686767" transform="translate(330,194)"/>
<path d="M0 0 C0.99 0 1.98 0 3 0 C5.04751136 5.48166586 7.07481043 10.97005998 9.07617188 16.46875 C9.65369269 18.05113263 10.23508789 19.63211282 10.82226562 21.2109375 C11.54332347 23.1561168 12.24322087 25.10763083 12.9375 27.0625 C13.33839844 28.16722656 13.73929687 29.27195313 14.15234375 30.41015625 C16.35497862 39.73836568 14.32948496 47.90655376 11.875 57 C11.2295938 59.47729843 10.5864177 61.95517878 9.9453125 64.43359375 C9.61950195 65.68640137 9.29369141 66.93920898 8.95800781 68.22998047 C7.18873134 75.19256134 5.61839454 82.20057149 4.04248047 89.20898438 C2.53468342 95.86096677 0.83537746 102.43042834 -1 109 C5.93 110.32 12.86 111.64 20 113 C17.63974164 115.36025836 15.91513615 115.86524458 12.75927734 116.92358398 C11.66408783 117.29414413 10.56889832 117.66470428 9.44052124 118.04649353 C8.25100861 118.4423616 7.06149597 118.83822968 5.8359375 119.24609375 C3.96972791 119.87537909 2.10351868 120.50466546 0.23732948 121.13401127 C-2.38406842 122.01634582 -5.00729643 122.89317235 -7.63049316 123.7701416 C-12.19598972 125.29774853 -16.75847257 126.83433443 -21.32113647 128.37037659 C-23.74902674 129.18712335 -26.17756811 130.00193789 -28.60684204 130.81455994 C-34.44885338 132.77419256 -40.24398189 134.80094009 -46 137 C-49.09312751 138.11668725 -52.20032775 139.18768437 -55.3125 140.25 C-56.10978516 140.53101563 -56.90707031 140.81203125 -57.72851562 141.1015625 C-58.49486328 141.36195313 -59.26121094 141.62234375 -60.05078125 141.890625 C-60.73825439 142.12813477 -61.42572754 142.36564453 -62.1340332 142.61035156 C-64 143 -64 143 -67 142 C-67 141.34 -67 140.68 -67 140 C-66.34 140 -65.68 140 -65 140 C-65 138.02 -65 136.04 -65 134 C-64.34 134 -63.68 134 -63 134 C-63 132.68 -63 131.36 -63 130 C-62.34 130 -61.68 130 -61 130 C-61 128.68 -61 127.36 -61 126 C-60.34 126 -59.68 126 -59 126 C-59 125.34 -59 124.68 -59 124 C-58.34 124 -57.68 124 -57 124 C-57 122.02 -57 120.04 -57 118 C-56.34 118 -55.68 118 -55 118 C-55 117.34 -55 116.68 -55 116 C-54.34 116 -53.68 116 -53 116 C-53 114.02 -53 112.04 -53 110 C-40.13 110 -27.26 110 -14 110 C-14 105.71 -14 101.42 -14 97 C-24.23 97 -34.46 97 -45 97 C-44.01 96.505 -44.01 96.505 -43 96 C-43 95.34 -43 94.68 -43 94 C-42.01 93.01 -42.01 93.01 -41 92 C-40.61067967 90.01014051 -40.28112064 88.00800456 -40 86 C-39.68325425 84.66262906 -39.35729936 83.32711192 -39 82 C-38.34 82 -37.68 82 -37 82 C-37 80.68 -37 79.36 -37 78 C-36.34 78 -35.68 78 -35 78 C-35 76.68 -35 75.36 -35 74 C-34.34 74 -33.68 74 -33 74 C-33 72.02 -33 70.04 -33 68 C-32.34 68 -31.68 68 -31 68 C-31 66.68 -31 65.36 -31 64 C-30.34 64 -29.68 64 -29 64 C-29 62.68 -29 61.36 -29 60 C-28.34 60 -27.68 60 -27 60 C-27 58.68 -27 57.36 -27 56 C-26.34 56 -25.68 56 -25 56 C-25 55.34 -25 54.68 -25 54 C-24.34 54 -23.68 54 -23 54 C-23 52.68 -23 51.36 -23 50 C-22.34 50 -21.68 50 -21 50 C-21 48.68 -21 47.36 -21 46 C-20.34 46 -19.68 46 -19 46 C-19 44.02 -19 42.04 -19 40 C-18.34 40 -17.68 40 -17 40 C-16.71125 39.13375 -16.4225 38.2675 -16.125 37.375 C-15.08333333 34.25 -14.04166667 31.125 -13 28 C-12.34 28 -11.68 28 -11 28 C-10.34 25.36 -9.68 22.72 -9 20 C-8.34 20 -7.68 20 -7 20 C-7 18.68 -7 17.36 -7 16 C-6.34 16 -5.68 16 -5 16 C-4.34 13.36 -3.68 10.72 -3 8 C-2.34 8 -1.68 8 -1 8 C-1 6.68 -1 5.36 -1 4 C-0.34 4 0.32 4 1 4 C0.505 2.02 0.505 2.02 0 0 Z " fill="#780214" transform="translate(305,196)"/>
<path d="M0 0 C2.05985688 3.08978532 3.01699374 5.69380141 4.1796875 9.2109375 C4.38852066 9.83899292 4.59735382 10.46704834 4.81251526 11.11413574 C5.50449412 13.19963578 6.18979006 15.28726712 6.875 17.375 C7.35916225 18.83880174 7.84362405 20.30250444 8.32836914 21.76611328 C10.99901234 29.84513134 13.63288918 37.9360128 16.25390625 46.03125 C16.65458313 47.26858383 16.65458313 47.26858383 17.06335449 48.53091431 C18.35930058 52.53542322 19.65193926 56.54095484 20.93896484 60.54833984 C21.41600551 62.02973052 21.89337242 63.51101619 22.37109375 64.9921875 C22.59720337 65.69435394 22.82331299 66.39652039 23.05627441 67.1199646 C24.66446961 72.07316158 26.42152749 76.95490761 28.32055664 81.80517578 C29 84 29 84 29 88 C21.97558005 90.3499962 14.95034324 92.69753818 7.92456055 95.04345703 C5.53961064 95.84010607 3.15484128 96.63729585 0.77026367 97.43505859 C-2.67741145 98.5883734 -6.12575324 99.73967595 -9.57421875 100.890625 C-11.1469178 101.41743866 -11.1469178 101.41743866 -12.75138855 101.95489502 C-19.19048653 104.10141994 -25.65374601 106.1479455 -32.14753723 108.12298584 C-37.17574343 109.66895099 -42.15814361 111.34367978 -47.11328125 113.109375 C-48.18964844 113.48578125 -49.26601563 113.8621875 -50.375 114.25 C-51.37273437 114.60578125 -52.37046875 114.9615625 -53.3984375 115.328125 C-56 116 -56 116 -59 115 C-58.71278076 114.45585449 -58.42556152 113.91170898 -58.12963867 113.35107422 C-56.81492688 110.85940001 -55.50120609 108.36720459 -54.1875 105.875 C-53.73568359 105.0190625 -53.28386719 104.163125 -52.81835938 103.28125 C-50.49750235 98.87670382 -48.20307093 94.46469523 -46 90 C-43.23723823 90.52268466 -40.6739124 91.10869587 -38 92 C-28.98461584 92.88510083 -22.68932861 91.75708971 -15 87 C-14.34 86.67 -13.68 86.34 -13 86 C-13 88.31 -13 90.62 -13 93 C-9.04 93 -5.08 93 -1 93 C-1 80.79 -1 68.58 -1 56 C-9.58 56 -18.16 56 -27 56 C-27 59.63 -27 63.26 -27 67 C-22.38 67 -17.76 67 -13 67 C-13 72 -13 72 -14.13671875 73.73046875 C-14.90435547 74.45169922 -14.90435547 74.45169922 -15.6875 75.1875 C-16.18636719 75.67605469 -16.68523437 76.16460937 -17.19921875 76.66796875 C-22.63854003 80.69141464 -28.50312279 80.61237134 -35 80 C-41.10267063 77.85276404 -44.8104238 74.2560928 -47.8125 68.5625 C-50.06776259 61.78382501 -50.43696484 52.80290751 -47.875 46.0625 C-45.09493467 41.52172663 -42.26468808 37.40777908 -37.6875 34.5625 C-30.88495139 33.13871076 -25.13288603 33.46179652 -19 37 C-17.09202857 38.89831081 -15.60057859 40.81739283 -14 43 C-10.54074837 41.7508258 -7.85306797 40.32472205 -5 38 C-5.12562262 33.85445364 -6.69583036 32.07518732 -9.55859375 29.31640625 C-10.19982178 28.6932251 -10.8410498 28.07004395 -11.50170898 27.42797852 C-11.99614502 26.95674561 -12.49058105 26.4855127 -13 26 C-11.58811067 22.97691173 -10.16961649 19.95696642 -8.75 16.9375 C-8.35425781 16.08994141 -7.95851563 15.24238281 -7.55078125 14.36914062 C-5.23028581 9.44284292 -2.77284392 4.68712379 0 0 Z " fill="#A71F1E" transform="translate(502,209)"/>
<path d="M0 0 C8.88151301 6.07074516 13.63548584 13.90645752 17 24 C17.73739812 37.49610053 16.17390998 47.87701244 6.9921875 58.2734375 C0.25173927 64.7722926 -7.18313596 68.07667186 -16.5625 68.5 C-25.77268098 68.11897967 -34.21643705 63.94851339 -40.5859375 57.359375 C-47.21237461 49.35383169 -50.93381833 39.30136667 -50.4140625 28.90625 C-49.0188068 19.11313452 -44.42487973 9.62480754 -36.828125 3.1484375 C-25.22376033 -4.97461777 -12.8728764 -6.86429392 0 0 Z " fill="#F5F5F5" transform="translate(387,232)"/>
<path d="M0 0 C0.94921875 2.58203125 0.94921875 2.58203125 1.6875 5.8125 C1.93886719 6.87082031 2.19023437 7.92914063 2.44921875 9.01953125 C3 12 3 12 3 16 C3.66 16 4.32 16 5 16 C5.226875 17.216875 5.45375 18.43375 5.6875 19.6875 C6.85638538 25.06266637 8.87953627 30.00916722 10.9765625 35.08203125 C12 38 12 38 12 42 C12.66 42 13.32 42 14 42 C15.6446116 47.89319155 14.30089464 51.92109629 12.390625 57.625 C10.42392549 63.61368858 8.87204191 69.72367381 7.25 75.8125 C6.93224609 77.00077393 6.61449219 78.18904785 6.28710938 79.41333008 C5.52271524 82.2750202 4.76032877 85.13722754 4 88 C-3.99330357 87.33303629 -11.59608678 85.14240565 -19.3125 83.0625 C-20.81703396 82.66088265 -22.32159172 82.25935444 -23.82617188 81.85791016 C-36.05375396 78.58117148 -48.22588998 75.11717612 -60.38891602 71.60961914 C-71.51302869 68.40424958 -82.67079616 65.34882606 -93.859375 62.375 C-97.92044374 61.29558739 -101.96479074 60.17223956 -106 59 C-106 58.34 -106 57.68 -106 57 C-105.34588135 56.64663574 -104.6917627 56.29327148 -104.01782227 55.92919922 C-98.97156829 53.19144708 -93.94987179 50.41820529 -88.96484375 47.5703125 C-87.97162109 47.003125 -86.97839844 46.4359375 -85.95507812 45.8515625 C-83.90676955 44.6795853 -81.85994197 43.50501665 -79.81445312 42.328125 C-78.83283203 41.76867187 -77.85121094 41.20921875 -76.83984375 40.6328125 C-75.51521118 39.87315186 -75.51521118 39.87315186 -74.16381836 39.09814453 C-72 38 -72 38 -70 38 C-70 43.94 -70 49.88 -70 56 C-64.19996802 55.97179472 -58.40397053 55.92841966 -52.60498047 55.84741211 C-50.63631347 55.82434809 -48.66752511 55.80986387 -46.69873047 55.80444336 C-31.4246305 56.275934 -31.4246305 56.275934 -18 50 C-13.34286221 44.4988831 -13.47219468 38.9311793 -14 32 C-15.78968312 26.42039969 -19.49736371 23.47874914 -24 20 C-23.2575 19.175 -22.515 18.35 -21.75 17.5 C-19.70167243 15.10182033 -18.55290388 12.99687019 -17.4375 10.0625 C-14.76879093 4.30253625 -6.28995987 -2.09665329 0 0 Z " fill="#994263" transform="translate(203,250)"/>
<path d="M0 0 C6.80625 -0.0825 13.6125 -0.165 20.625 -0.25 C23.83210693 -0.30462402 23.83210693 -0.30462402 27.10400391 -0.36035156 C28.81151324 -0.37204142 30.51903377 -0.38223255 32.2265625 -0.390625 C33.10272217 -0.41108887 33.97888184 -0.43155273 34.8815918 -0.45263672 C40.44248833 -0.45579184 43.59368012 0.27895669 48 4 C52.9739191 9.64607033 53.39232468 13.21395293 53.359375 20.65234375 C52.74253261 26.3983647 49.98635588 30.01364412 46 34 C46.83144531 34.67095703 46.83144531 34.67095703 47.6796875 35.35546875 C48.40414062 35.96003906 49.12859375 36.56460938 49.875 37.1875 C50.59429687 37.77917969 51.31359375 38.37085938 52.0546875 38.98046875 C55.62542722 42.68744151 56.29109528 46.40739056 56.3125 51.4375 C56.18558873 57.33887384 55.05855567 60.99862643 50.75 65.1875 C44.15201932 69.53616909 39.10275939 70.43308798 31.34765625 70.29296875 C30.54871948 70.28994751 29.74978271 70.28692627 28.92663574 70.28381348 C25.97179046 70.26824025 23.01713083 70.22635711 20.0625 70.1875 C13.441875 70.125625 6.82125 70.06375 0 70 C0 46.9 0 23.8 0 0 Z " fill="#FAF2F7" transform="translate(134,236)"/>
<path d="M0 0 C3.28614836 2.68866684 6.64428376 5.51378753 8.75 9.25 C8.59647327 11.93160025 8.11020586 12.92175485 6.12109375 14.734375 C5.16396484 15.36085937 5.16396484 15.36085937 4.1875 16 C3.54683594 16.42796875 2.90617187 16.8559375 2.24609375 17.296875 C1.75238281 17.61140625 1.25867188 17.9259375 0.75 18.25 C-2.05549222 17.10702169 -3.53506374 15.95762693 -5.6875 13.75 C-9.49414084 10.03620406 -12.47616855 9.14700076 -17.6875 8.9375 C-21.93886874 9.07123511 -24.71019928 9.73280838 -28.25 12.25 C-34.89239268 19.59405388 -35.53136534 24.97158132 -35.48046875 34.75390625 C-35.1869232 39.20684295 -34.14343183 42.23592452 -32.25 46.25 C-31.92 47.24 -31.59 48.23 -31.25 49.25 C-29.46771064 50.39209817 -29.46771064 50.39209817 -27.25 51.25 C-26.49074219 51.59289062 -25.73148437 51.93578125 -24.94921875 52.2890625 C-19.35685404 54.27997671 -13.3457577 54.01209371 -7.8125 52 C-2.90823359 48.65074489 -1.45628185 47.28140925 -0.25 41.25 C-4.87 41.25 -9.49 41.25 -14.25 41.25 C-14.25 37.62 -14.25 33.99 -14.25 30.25 C-5.67 30.25 2.91 30.25 11.75 30.25 C11.75 42.46 11.75 54.67 11.75 67.25 C7.79 67.25 3.83 67.25 -0.25 67.25 C-0.58 65.27 -0.91 63.29 -1.25 61.25 C-1.79269531 61.59933594 -2.33539063 61.94867188 -2.89453125 62.30859375 C-3.60996094 62.76363281 -4.32539063 63.21867187 -5.0625 63.6875 C-5.77019531 64.13996094 -6.47789062 64.59242188 -7.20703125 65.05859375 C-12.75008201 68.29115681 -19.04198438 67.87928632 -25.25 67.25 C-36.69335374 63.49271355 -43.53285843 55.46302472 -48.890625 45.06640625 C-50.72049873 40.63662412 -50.82557922 36.30755236 -50.8125 31.5625 C-50.81080811 30.68198975 -50.80911621 29.80147949 -50.80737305 28.89428711 C-50.5582253 19.8158097 -47.6392472 13.35277292 -41.875 6.375 C-40.575625 5.323125 -40.575625 5.323125 -39.25 4.25 C-38.67636719 3.74984375 -38.10273438 3.2496875 -37.51171875 2.734375 C-26.13495233 -6.65886701 -12.71970068 -6.8490696 0 0 Z " fill="#FAEBEB" transform="translate(489.25,234.75)"/>
<path d="M0 0 C6.48609113 2.32889849 10.05178687 6.95173444 13 13 C15.59335948 20.78007845 14.36858777 29.10245452 11.34375 36.578125 C8.71135722 41.32255385 5.11472567 44.29509144 0 46 C-6.30974569 46.71354152 -11.94345235 46.71600395 -17.20703125 42.86328125 C-22.50951901 37.3528528 -25.32481265 30.47182968 -25.6875 22.875 C-25.28764206 15.9320122 -22.98977426 10.15016987 -18.1796875 5.08203125 C-12.33500803 -0.06568854 -7.79120718 -0.90546462 0 0 Z " fill="#A3A3A3" transform="translate(376,241)"/>
<path d="M0 0 C4.62 0 9.24 0 14 0 C14 19.47 14 38.94 14 59 C25.88 59 37.76 59 50 59 C50 62.96 50 66.92 50 71 C33.5 71 17 71 0 71 C0 47.57 0 24.14 0 0 Z " fill="#FAE9EF" transform="translate(241,235)"/>
<path d="M0 0 C-3.0115125 7.05327927 -6.44835843 13.80350005 -10.0625 20.5625 C-13.44802908 26.90260489 -16.65291003 33.18643284 -19 40 C-22 40 -22 40 -24.5 38 C-30.77104617 30.47474459 -30.81253832 22.45704324 -30 13 C-28.80889036 7.38193284 -25.10066562 2.88042527 -21 -1 C-14.33847344 -5.14094894 -6.54906758 -3.34420472 0 0 Z " fill="#D05656" transform="translate(483,246)"/>
<path d="M0 0 C4.3981401 1.79077366 8.87991004 4.61848075 11 9 C10.73023003 11.63970243 10.33841805 12.70588341 8.31591797 14.46362305 C7.59033691 14.91261963 6.86475586 15.36161621 6.1171875 15.82421875 C5.3034668 16.33645996 4.48974609 16.84870117 3.65136719 17.37646484 C2.33894043 18.18011475 2.33894043 18.18011475 1 19 C-0.31629395 19.83265381 -0.31629395 19.83265381 -1.65917969 20.68212891 C-4.38833124 22.40790144 -7.12985902 24.11229616 -9.875 25.8125 C-10.81085938 26.39708984 -11.74671875 26.98167969 -12.7109375 27.58398438 C-13.608125 28.14021484 -14.5053125 28.69644531 -15.4296875 29.26953125 C-16.23647949 29.77073486 -17.04327148 30.27193848 -17.87451172 30.78833008 C-20 32 -20 32 -23 33 C-25.98712449 27.93748379 -25.67414387 22.70213356 -25 17 C-22.81681554 10.02160681 -19.01068149 5.10300928 -13 1 C-9.01667449 -0.99166276 -4.32968731 -0.52516423 0 0 Z " fill="#696969" transform="translate(376,241)"/>
<path d="M0 0 C0.84626953 -0.03287109 1.69253906 -0.06574219 2.56445312 -0.09960938 C6.99892179 -0.13780762 8.96621523 -0.00647704 12.62109375 2.71484375 C15.24874202 6.39989575 15.24874202 6.39989575 15.1875 9.4375 C15.20039063 10.076875 15.21328125 10.71625 15.2265625 11.375 C14.07494421 14.95179094 12.64031123 16.25409545 9.5625 18.4375 C5.6070818 19.04932553 1.7401689 18.90843676 -2.25 18.75 C-3.32443359 18.72744141 -4.39886719 18.70488281 -5.50585938 18.68164062 C-8.15033888 18.62287441 -10.79409933 18.53319833 -13.4375 18.4375 C-13.4375 13.1575 -13.4375 7.8775 -13.4375 2.4375 C-8.6399402 0.0387201 -5.25511119 0.03585747 0 0 Z " fill="#973F5F" transform="translate(161.4375,275.5625)"/>
<path d="M0 0 C3.20975922 -0.1354964 6.41375629 -0.23434038 9.625 -0.3125 C10.98044922 -0.3753418 10.98044922 -0.3753418 12.36328125 -0.43945312 C16.78471262 -0.52013618 20.02105944 -0.51295506 23.60546875 2.26953125 C26.80553936 5.91855141 26.80553936 5.91855141 26.6875 9 C26.69330078 9.9590625 26.69330078 9.9590625 26.69921875 10.9375 C25.51070132 14.44329444 24.00268323 15.82473946 21 18 C17.37449791 18.6050566 13.85003804 18.47238245 10.1875 18.3125 C8.71893555 18.27866211 8.71893555 18.27866211 7.22070312 18.24414062 C4.8131427 18.18541964 2.40637246 18.09574426 0 18 C0 12.06 0 6.12 0 0 Z " fill="#C585A0" transform="translate(148,247)"/>
<path d="M0 0 C0.99 0 1.98 0 3 0 C5.03435531 3.72965139 6 5.66905042 6 10 C6.66 10 7.32 10 8 10 C8.18175781 10.7734375 8.36351562 11.546875 8.55078125 12.34375 C10.28339662 19.52500368 10.28339662 19.52500368 12.6875 26.5 C14 30 14 30 14 34 C14.66 34 15.32 34 16 34 C18.27571116 42.03501094 18.27571116 42.03501094 17.125 46.0625 C16.75375 46.701875 16.3825 47.34125 16 48 C15.67 46.68 15.34 45.36 15 44 C14.34 44 13.68 44 13 44 C11.81770821 40.79721107 10.65703182 37.5869918 9.5 34.375 C8.99919922 33.01955078 8.99919922 33.01955078 8.48828125 31.63671875 C6.81240654 26.95110988 5.52953329 23.05751716 6 18 C5.34 18 4.68 18 4 18 C3.32873871 15.5636811 2.66283646 13.12611117 2 10.6875 C1.71382812 9.65206055 1.71382812 9.65206055 1.421875 8.59570312 C0.62283816 5.64212051 0 3.07440781 0 0 Z " fill="#850937" transform="translate(202,248)"/>
<path d="M0 0 C2.40830352 2.40830352 2.29937679 3.01141132 2.3203125 6.3125 C2.1833514 12.79377786 0.55637447 18.77123217 -1.125 25 C-1.77045037 27.47598453 -2.4136251 29.95256324 -3.0546875 32.4296875 C-3.38049805 33.68233398 -3.70630859 34.93498047 -4.04199219 36.22558594 C-5.81667468 43.21758169 -7.38712124 50.25663531 -8.95751953 57.296875 C-10.38629896 63.62067931 -12.04559621 69.81787632 -14 76 C-14.66 76 -15.32 76 -16 76 C-16.042721 74.33388095 -16.04063832 72.66617115 -16 71 C-15.505 70.505 -15.505 70.505 -15 70 C-14.835 68.845 -14.67 67.69 -14.5 66.5 C-14 63 -14 63 -13 62 C-12.835 60.845 -12.67 59.69 -12.5 58.5 C-12 55 -12 55 -11 54 C-10.835 52.845 -10.67 51.69 -10.5 50.5 C-10 47 -10 47 -9 46 C-8.76712992 44.31816052 -8.58735834 42.6287584 -8.4375 40.9375 C-8.35371094 40.01839844 -8.26992188 39.09929687 -8.18359375 38.15234375 C-8.12300781 37.44207031 -8.06242187 36.73179687 -8 36 C-7.34 36 -6.68 36 -6 36 C-5.34 31.38 -4.68 26.76 -4 22 C-3.34 22 -2.68 22 -2 22 C-2 18.7 -2 15.4 -2 12 C-1.34 12 -0.68 12 0 12 C0 8.04 0 4.08 0 0 Z " fill="#530507" transform="translate(318,228)"/>
<path d="M0 0 C0.33 0 0.66 0 1 0 C1.02505615 1.28052246 1.0501123 2.56104492 1.07592773 3.88037109 C1.1707097 8.67017154 1.27075219 13.45985064 1.37231445 18.24951172 C1.41539748 20.31523787 1.45708897 22.38099357 1.49731445 24.44677734 C1.55566842 27.4307543 1.61916859 30.41458616 1.68359375 33.3984375 C1.70030624 34.30927094 1.71701874 35.22010437 1.73423767 36.15853882 C1.86992757 42.146365 2.31923703 48.04969036 3 54 C3.66 54 4.32 54 5 54 C5 53.34 5 52.68 5 52 C5.66 52 6.32 52 7 52 C7 50.68 7 49.36 7 48 C7.66 48 8.32 48 9 48 C9.33 49.65 9.66 51.3 10 53 C8.515 53.495 8.515 53.495 7 54 C7 54.66 7 55.32 7 56 C16.57 56.33 26.14 56.66 36 57 C36 57.33 36 57.66 36 58 C24.12 58 12.24 58 0 58 C0 38.86 0 19.72 0 0 Z " fill="#9D3D56" transform="translate(255,236)"/>
<path d="M0 0 C0.99 0.33 1.98 0.66 3 1 C3 2.65 3 4.3 3 6 C3.66 6 4.32 6 5 6 C5 7.98 5 9.96 5 12 C5.66 12 6.32 12 7 12 C7 13.32 7 14.64 7 16 C7.66 16 8.32 16 9 16 C9 17.32 9 18.64 9 20 C9.66 20 10.32 20 11 20 C11 21.98 11 23.96 11 26 C11.66 26 12.32 26 13 26 C13 28.64 13 31.28 13 34 C13.66 34 14.32 34 15 34 C15 35.98 15 37.96 15 40 C15.66 40 16.32 40 17 40 C16.67 41.65 16.34 43.3 16 45 C14 44 14 44 13.03515625 41.12109375 C12.71417969 39.90550781 12.39320313 38.68992187 12.0625 37.4375 C10.65499046 32.14366856 8.9881 27.09377825 7 22 C5.95436638 19.29317645 4.91387349 16.58442384 3.875 13.875 C3.61074219 13.19824219 3.34648437 12.52148438 3.07421875 11.82421875 C1.57565295 7.89143439 0.53684285 4.20308673 0 0 Z " fill="#9B7D79" transform="translate(411,238)"/>
<path d="M0 0 C0.98120464 3.05263664 0.98120464 4.94736336 0 8 C-0.66 8 -1.32 8 -2 8 C-2 8.66 -2 9.32 -2 10 C-3.32 10 -4.64 10 -6 10 C-6 10.66 -6 11.32 -6 12 C-6.66386719 12.12117187 -7.32773437 12.24234375 -8.01171875 12.3671875 C-13.55012029 13.40049974 -13.55012029 13.40049974 -18.875 15.1875 C-21.4099392 16.15674146 -22.45903399 15.74953181 -25 15 C-16.66666667 10 -8.33333333 5 0 0 Z " fill="#A09E9E" transform="translate(440,220)"/>
<path d="M0 0 C2 1 2 1 2.8515625 3.07421875 C4.25894737 7.82947369 5.3961821 11.98169339 5 17 C5.66 17 6.32 17 7 17 C9.03993514 21.92984325 10.40652968 25.57960425 10 31 C10.99 31.33 11.98 31.66 13 32 C13.94921875 34.94140625 13.94921875 34.94140625 14.6875 38.5625 C14.93886719 39.76003906 15.19023437 40.95757812 15.44921875 42.19140625 C15.63097656 43.11824219 15.81273437 44.04507813 16 45 C13 44 13 44 12.0168457 42.14575195 C11.6005188 40.95405396 11.6005188 40.95405396 11.17578125 39.73828125 C10.86962891 38.86623047 10.56347656 37.99417969 10.24804688 37.09570312 C9.93931641 36.17724609 9.63058594 35.25878906 9.3125 34.3125 C8.99216797 33.41337891 8.67183594 32.51425781 8.34179688 31.58789062 C6.73946183 26.93121117 5.56094617 22.99527283 6 18 C5.34 18 4.68 18 4 18 C3.32873871 15.5636811 2.66283646 13.12611117 2 10.6875 C1.71382812 9.65206055 1.71382812 9.65206055 1.421875 8.59570312 C0.62283816 5.64212051 0 3.07440781 0 0 Z " fill="#8D274D" transform="translate(202,248)"/>
<path d="M0 0 C2.38738943 2.38738943 2.30833556 2.94395567 2.34375 6.2109375 C2.20189615 13.25043499 0.30495888 19.85814642 -1.5 26.625 C-1.83834507 27.92809888 -2.17559259 29.23148325 -2.51171875 30.53515625 C-3.33043728 33.69307059 -4.16006116 36.84767633 -5 40 C-5.33 40 -5.66 40 -6 40 C-6.125 33.25 -6.125 33.25 -5 31 C-4.77532169 29.46331135 -4.59203195 27.92031946 -4.4375 26.375 C-4.35371094 25.55773437 -4.26992188 24.74046875 -4.18359375 23.8984375 C-4.12300781 23.27195313 -4.06242187 22.64546875 -4 22 C-3.34 22 -2.68 22 -2 22 C-2 18.7 -2 15.4 -2 12 C-1.34 12 -0.68 12 0 12 C0 8.04 0 4.08 0 0 Z " fill="#490B0E" transform="translate(318,228)"/>
<path d="M0 0 C0.99 0.33 1.98 0.66 3 1 C3 3.31 3 5.62 3 8 C3.66 8 4.32 8 5 8 C5.67812114 9.8708878 6.3419946 11.74694293 7 13.625 C7.37125 14.66914063 7.7425 15.71328125 8.125 16.7890625 C9.00483564 20.01774506 9.15988262 22.67244294 9 26 C10.32 26.66 11.64 27.32 13 28 C12.67 28.66 12.34 29.32 12 30 C11.01 30 10.02 30 9 30 C7.71248643 26.21165112 6.43090931 22.42135154 5.15478516 18.62915039 C4.71988772 17.33953841 4.28337578 16.05046971 3.84521484 14.76196289 C3.21547426 12.9091547 2.59202743 11.05421111 1.96875 9.19921875 C1.59169922 8.08377686 1.21464844 6.96833496 0.82617188 5.8190918 C0 3 0 3 0 0 Z " fill="#9E1A49" transform="translate(227,310)"/>
<path d="M0 0 C0.66 0 1.32 0 2 0 C4.08386889 5.27913453 4.57910004 10.39538469 5 16 C4.01 16.33 3.02 16.66 2 17 C1.87625 15.96875 1.7525 14.9375 1.625 13.875 C1.12801788 10.06070591 1.12801788 10.06070591 -0.125 6.8125 C-1.01802669 3.94205708 -1.05900963 2.75342504 0 0 Z " fill="#BE678A" transform="translate(198,232)"/>
<path d="M0 0 C-2.85867556 2.85867556 -6.34173436 3.50112834 -10.125 4.625 C-10.87910156 4.85445313 -11.63320313 5.08390625 -12.41015625 5.3203125 C-14.27173159 5.88585438 -16.13565151 6.44366822 -18 7 C-18.66 6.34 -19.32 5.68 -20 5 C-16.62902617 3.50178941 -14.79557881 3 -11 3 C-10.67 2.01 -10.34 1.02 -10 0 C-6.30581799 -1.231394 -3.7943739 -0.64432764 0 0 Z " fill="#6D181E" transform="translate(325,309)"/>
<path d="M0 0 C0 0.99 0 1.98 0 3 C-0.969375 3.2475 -1.93875 3.495 -2.9375 3.75 C-6.84066769 4.84925947 -10.42030875 6.46844165 -14.08203125 8.1953125 C-16 9 -16 9 -18 9 C-18.33 8.01 -18.66 7.02 -19 6 C-16.20964954 4.99619084 -13.41785145 3.9968055 -10.625 3 C-9.43390625 2.57074219 -9.43390625 2.57074219 -8.21875 2.1328125 C-7.45820313 1.86210937 -6.69765625 1.59140625 -5.9140625 1.3125 C-4.8614624 0.93544922 -4.8614624 0.93544922 -3.78759766 0.55078125 C-2 0 -2 0 0 0 Z " fill="#A92451" transform="translate(255,213)"/>
<path d="M0 0 C0.99 0.33 1.98 0.66 3 1 C3 2.65 3 4.3 3 6 C3.66 6 4.32 6 5 6 C5 7.98 5 9.96 5 12 C5.66 12 6.32 12 7 12 C7 14.31 7 16.62 7 19 C4.16580771 15.70291671 3.03445826 12.52310354 1.8125 8.375 C1.46832031 7.22773438 1.12414062 6.08046875 0.76953125 4.8984375 C0 2 0 2 0 0 Z " fill="#90918C" transform="translate(411,238)"/>
<path d="M0 0 C0.79664063 0.55300781 0.79664063 0.55300781 1.609375 1.1171875 C0.949375 1.7771875 0.289375 2.4371875 -0.390625 3.1171875 C-2.390625 3.1171875 -4.390625 3.1171875 -6.390625 3.1171875 C-7.050625 3.7771875 -7.710625 4.4371875 -8.390625 5.1171875 C-11.015625 5.2421875 -11.015625 5.2421875 -13.390625 5.1171875 C-13.720625 4.4571875 -14.050625 3.7971875 -14.390625 3.1171875 C-12.48083867 2.3905078 -10.56243985 1.68643162 -8.640625 0.9921875 C-7.57328125 0.59773437 -6.5059375 0.20328125 -5.40625 -0.203125 C-2.390625 -0.8828125 -2.390625 -0.8828125 0 0 Z " fill="#A51C4C" transform="translate(282.390625,204.8828125)"/>
<path d="M0 0 C0.66 0 1.32 0 2 0 C2 1.32 2 2.64 2 4 C2.66 4 3.32 4 4 4 C4 5.98 4 7.96 4 10 C4.66 10 5.32 10 6 10 C5.67 11.65 5.34 13.3 5 15 C3 14 3 14 2.1484375 11.85546875 C1.89320313 10.97503906 1.63796875 10.09460938 1.375 9.1875 C1.11460937 8.31480469 0.85421875 7.44210937 0.5859375 6.54296875 C0 4 0 4 0 0 Z " fill="#938583" transform="translate(422,268)"/>
<path d="M0 0 C0.33 0 0.66 0 1 0 C1 1.98 1 3.96 1 6 C0.34 6 -0.32 6 -1 6 C-0.97679687 6.62648437 -0.95359375 7.25296875 -0.9296875 7.8984375 C-0.91164063 8.71570313 -0.89359375 9.53296875 -0.875 10.375 C-0.85179687 11.18710938 -0.82859375 11.99921875 -0.8046875 12.8359375 C-1 15 -1 15 -3 17 C-3.08160748 15.10489301 -3.13946459 13.20875496 -3.1875 11.3125 C-3.22230469 10.25675781 -3.25710938 9.20101562 -3.29296875 8.11328125 C-2.96555119 4.63392401 -2.05643142 2.7919812 0 0 Z " fill="#66020A" transform="translate(315,244)"/>
<path d="M0 0 C0.33 0.99 0.66 1.98 1 3 C-6.44230769 5.23269231 -6.44230769 5.23269231 -9.265625 4.0546875 C-9.83796875 3.70664063 -10.4103125 3.35859375 -11 3 C-9.54293274 2.49632243 -8.08429904 1.99717444 -6.625 1.5 C-5.81289063 1.2215625 -5.00078125 0.943125 -4.1640625 0.65625 C-2 0 -2 0 0 0 Z " fill="#AE2856" transform="translate(267,209)"/>
<path d="M0 0 C1.32 0 2.64 0 4 0 C4 1.32 4 2.64 4 4 C3.34 4 2.68 4 2 4 C2 5.32 2 6.64 2 8 C1.34 8 0.68 8 0 8 C0 5.36 0 2.72 0 0 Z " fill="#B96361" transform="translate(414,236)"/>
<path d="M0 0 C-0.33 1.32 -0.66 2.64 -1 4 C-4.3 4 -7.6 4 -11 4 C-7.61125486 1.74083657 -4.15175481 0 0 0 Z " fill="#E5D0C6" transform="translate(307,316)"/>
<path d="M0 0 C0.33 0 0.66 0 1 0 C1 3.3 1 6.6 1 10 C0.34 9.01 -0.32 8.02 -1 7 C-1.99 7.99 -2.98 8.98 -4 10 C-2.8905928 6.51329166 -1.73662334 3.22515763 0 0 Z " fill="#AE292A" transform="translate(473,265)"/>
<path d="M0 0 C1.32 0 2.64 0 4 0 C4 2.64 4 5.28 4 8 C3.34 8 2.68 8 2 8 C2 6.02 2 4.04 2 2 C1.34 2 0.68 2 0 2 C0 1.34 0 0.68 0 0 Z " fill="#C15E58" transform="translate(424,270)"/>
<path d="M0 0 C0.66 0 1.32 0 2 0 C2.66 2.64 3.32 5.28 4 8 C3.34 8 2.68 8 2 8 C0.3125 6.25 0.3125 6.25 -1 4 C-0.6875 1.75 -0.6875 1.75 0 0 Z " fill="#B7577D" transform="translate(198,232)"/>
<path d="M0 0 C0.7734375 0.61875 0.7734375 0.61875 1.5625 1.25 C-4.8375 4.32692308 -4.8375 4.32692308 -7.875 3.9375 C-8.390625 3.710625 -8.90625 3.48375 -9.4375 3.25 C-3.0375 -0.93461538 -3.0375 -0.93461538 0 0 Z " fill="#A79894" transform="translate(424.4375,231.75)"/>
<path d="M0 0 C0.66 0 1.32 0 2 0 C2.33 1.98 2.66 3.96 3 6 C1.68 6.33 0.36 6.66 -1 7 C-0.67 4.69 -0.34 2.38 0 0 Z " fill="#F1DFDF" transform="translate(427,281)"/>
<path d="M0 0 C1.9451 2.91765 2.45276317 4.62537285 3 8 C2.01 8 1.02 8 0 8 C-1.125 2.25 -1.125 2.25 0 0 Z " fill="#822C37" transform="translate(310,203)"/>
<path d="M0 0 C-3.26545761 1.88391785 -6.28111761 2.49287967 -10 3 C-10 2.34 -10 1.68 -10 1 C-6.78548731 -0.60725635 -3.56387464 -0.05748185 0 0 Z " fill="#76222D" transform="translate(266,330)"/>
<path d="M0 0 C0 0.99 0 1.98 0 3 C-2.31 3.33 -4.62 3.66 -7 4 C-7 3.34 -7 2.68 -7 2 C-2.25 0 -2.25 0 0 0 Z " fill="#A52452" transform="translate(232,221)"/>
<path d="M0 0 C0 0.99 0 1.98 0 3 C-1.98 3.33 -3.96 3.66 -6 4 C-6.33 3.34 -6.66 2.68 -7 2 C-2.25 0 -2.25 0 0 0 Z " fill="#A8214E" transform="translate(296,199)"/>
</svg>
